<svg version="1" xmlns="http://www.w3.org/2000/svg" width="682.667" height="682.667" viewBox="0 0 512.000000 512.000000"><path d="M39 1.6c-3 .8-8 2.6-11 4.1C20.8 9.2 9.2 20.8 5.7 28-.4 40.6 0 25.7 0 256s-.4 215.4 5.7 228c3.5 7.2 15.1 18.8 22.3 22.3 12.6 6.1-2.3 5.7 228 5.7s215.4.4 228-5.7c7.2-3.5 18.8-15.1 22.3-22.3 6.1-12.6 5.7 2.3 5.7-228s.4-215.4-5.7-228c-3.5-7.2-15.1-18.8-22.3-22.3C471.3-.4 486.3 0 255.5.1 73.9.1 43.7.3 39 1.6zM326.5 148c0 .5-4.7 4.3-10.5 8.6-25.8 18.9-39.6 39.1-40.7 59.4-.9 15.1 4.5 29.2 20.7 54 11.5 17.7 17.2 28.5 20.1 37.9 1.9 6.3 2.1 8.9 1.6 18.5-1.8 36.7-28.1 66.3-78 87.7-7.6 3.2-7.8 3.2-9.1 1.3-.8-1-5.5-7.3-10.4-13.9-5-6.6-8.9-12.2-8.7-12.6.3-.3 3.4-2.4 7.1-4.5 9.2-5.3 22.3-17.9 25.7-24.6 1.5-2.9 3.3-7.9 3.9-11.1 3.1-14.7-6.6-35.2-29.3-62.2-10.8-12.9-15.9-20.4-22.8-34-7.4-14.7-10.2-25.3-10.8-40.7-.7-15.6.7-25.9 5.3-39.8 4.1-12.3 10.3-24.3 18.2-35.4 6.9-9.6 23.1-26.7 33.2-35.1l7.4-6.2 38.6 25.9c21.2 14.3 38.5 26.3 38.5 26.8z"/></svg>